# xmcd CD database file
#
# Track frame offsets:
#	150
#	24563
#	43313
#	67986
#	89874
#	115896
#	138030
#	156519
#	175880
#	186567
#	202124
#	221925
#	240519
#	261480
#	281589
#
# Disc length: 3985 seconds
#
# Revision: 1
# Processed by: cddbd v1.5.2PL0 Copyright (c) Steve Scherf et al.
# Submitted via: CDex 1.51
#
DISCID=f30f8f0f
DTITLE=Various Artist - SF-04
DYEAR=1900
DGENRE=Blues
TTITLE0=Elton John - Sacrifice
TTITLE1=Del Amitri - Always The Last To Know
TTITLE2=R.E.M. - Man On The Moon
TTITLE3=Bon Jovi - Keep The Faith
TTITLE4=Elton John - Don't Let The Sun Go Down
TTITLE5=Whitney Houston - I Will Always Love You
TTITLE6=U2 - I Still Haven't Found What I'm Looking For
TTITLE7=Madonna - Holiday
TTITLE8=London Beat - I've Been Thinking About You
TTITLE9=Bob Marley - Iron Lion Zion
TTITLE10=Rod Stewart - Tom Trauberts Blues (walzing matilda)
TTITLE11=Tasmin Archer - Sleeping Satellite
TTITLE12=Patty Smyth and Don Henley - Sometimes Love Just Ain't Enough
TTITLE13=George Michael - Careless Whisper
TTITLE14=Ace Of Base - All That She Wants
EXTD=
EXTT0=
EXTT1=
EXTT2=
EXTT3=
EXTT4=
EXTT5=
EXTT6=
EXTT7=
EXTT8=
EXTT9=
EXTT10=
EXTT11=
EXTT12=
EXTT13=
EXTT14=
PLAYORDER=
